<svg version="1.1" xmlns="http://www.w3.org/2000/svg" xmlns:xlink="http://www.w3.org/1999/xlink" x="0px" y="0px" width="520px" height="520px" viewBox="0 0 520 520" style="enable-background:new 0 0 520 520;" xml:space="preserve">
<g id="_x31_042_x2C__Capsule_x2C__Medicine_x2C__Pills">
<g>
<circle cx="112.01" cy="312.903" r="10" id="id_101" style="fill: rgb(255, 255, 255);"></circle>
<circle cx="440" cy="300" r="10" id="id_102" style="fill: rgb(255, 255, 255);"></circle>
<circle cx="360" cy="40" r="10" id="id_103" style="fill: rgb(255, 255, 255);"></circle>
<circle cx="350" cy="160" r="10" id="id_104" style="fill: rgb(255, 255, 255);"></circle>
<circle cx="220" cy="60" r="10" id="id_105" style="fill: rgb(255, 255, 255);"></circle>
<circle cx="120" cy="70" r="10" id="id_106" style="fill: rgb(255, 255, 255);"></circle>
<circle cx="60" cy="230" r="10" id="id_107" style="fill: rgb(255, 255, 255);"></circle>
<circle cx="230" cy="430" r="10" id="id_108" style="fill: rgb(255, 255, 255);"></circle>
<path d="M175.649,178.553l-84.853,84.853c-31.191,31.192-31.191,81.945,0,113.138c31.262,31.264,81.87,31.27,113.137,0
			l6.322-6.321C228.393,408.17,266.037,430,305.015,430c45.293,0,85.329-28.897,99.625-71.906
			c16.867-50.746-7.305-105.426-54.386-127.871l16.314-16.314c31.264-31.263,31.269-81.87,0-113.137
			c-31.262-31.263-81.869-31.269-113.137,0L175.649,178.553L175.649,178.553L175.649,178.553z M189.792,362.4
			c-23.446,23.448-61.401,23.452-84.853,0c-23.394-23.394-23.394-61.459,0-84.853l77.782-77.781l49.493,49.493
			c-26.739,25.732-38.07,63.971-29.377,100.096L189.792,362.4z M229.006,363.052c-18.437-36.795-7.573-79.704,22.375-104.064
			c1.407-0.672,2.478-1.552,3.355-2.6c19.54-14.333,44.053-19.513,67.402-14.672l-53.249,160.194
			C251.633,393.851,237.667,380.338,229.006,363.052z M385.661,351.785c-13.686,41.172-55.837,65.144-97.799,56.448l53.252-160.205
			C379.568,266.044,399.377,310.52,385.661,351.785z M267.574,114.913c23.445-23.447,61.401-23.452,84.852,0
			c23.448,23.446,23.452,61.401,0,84.853l-23.075,23.076c-27.354-6.553-56.789-1.971-81.356,13.913l-51.131-51.131L267.574,114.913z
			" id="id_109" style="fill: rgb(255, 255, 255);"></path>
<path d="M175.65,235.121l-49.498,49.497c-3.905,3.905-3.906,10.237,0,14.143c3.906,3.904,10.237,3.905,14.142,0l49.498-49.497
			c3.905-3.905,3.906-10.237,0-14.142S179.555,231.217,175.65,235.121z" id="id_110" style="fill: rgb(255, 255, 255);"></path>
<path d="M317.071,206.837l14.143-14.142c3.905-3.905,3.905-10.237,0-14.142s-10.235-3.905-14.143,0l-14.143,14.142
			c-3.905,3.905-3.905,10.237,0,14.142S313.164,210.743,317.071,206.837z" id="id_111" style="fill: rgb(255, 255, 255);"></path>
<path d="M210,430c0-5.522-4.477-10-10-10H50c-5.523,0-10,4.478-10,10s4.477,10,10,10h150C205.523,440,210,435.522,210,430z" id="id_112" style="fill: rgb(255, 255, 255);"></path>
<path d="M460,450H190c-5.523,0-10,4.478-10,10s4.477,10,10,10h270c5.522,0,10-4.478,10-10S465.522,450,460,450z" id="id_113" style="fill: rgb(255, 255, 255);"></path>
<path d="M90,190c16.542,0,30-13.458,30-30s-13.458-30-30-30s-30,13.458-30,30S73.458,190,90,190z M90,150c5.514,0,10,4.486,10,10
			s-4.486,10-10,10s-10-4.486-10-10S84.486,150,90,150z" id="id_114" style="fill: rgb(255, 255, 255);"></path>
<path d="M445,350c-13.785,0-25,11.215-25,25s11.215,25,25,25s25-11.215,25-25S458.785,350,445,350z M445,380c-2.757,0-5-2.243-5-5
			s2.243-5,5-5s5,2.243,5,5S447.757,380,445,380z" id="id_115" style="fill: rgb(255, 255, 255);"></path>
<path d="M445,140c19.299,0,35-15.701,35-35s-15.701-35-35-35s-35,15.701-35,35S425.701,140,445,140z M445,90
			c8.271,0,15,6.729,15,15s-6.729,15-15,15s-15-6.729-15-15S436.729,90,445,90z" id="id_116" style="fill: rgb(255, 255, 255);"></path>
</g>
</g>
<g id="Layer_1">
</g>
</svg>