<svg version="1.1" id="_x31_-outline-expand" xmlns="http://www.w3.org/2000/svg" xmlns:xlink="http://www.w3.org/1999/xlink" x="0px" y="0px" viewBox="0 0 64 64" style="enable-background:new 0 0 64 64;" xml:space="preserve">
<path d="M44.6,43.8c0.252-0.188,0.4-0.485,0.4-0.8v-0.197c1.699-1.601,3.067-3.48,4.068-5.538C49.703,43.289,54.811,48,61,48
	c0.552,0,1-0.448,1-1V23c0-6.617-5.383-12-12-12h-1.875C44.769,5.608,38.805,2,32,2C21.861,2,13.576,9.989,13.051,20H12
	c-2.757,0-5,2.243-5,5s2.243,5,5,5h1.053c0.26,4.851,2.382,9.443,5.947,12.803V43c0,0.315,0.148,0.611,0.4,0.8
	c1.136,0.852,2.347,1.558,3.6,2.149v1.806c0,1.41-1.001,2.645-2.382,2.936l-9.635,2.029c-4.164,0.876-7.586,3.928-8.932,7.965
	C2.017,60.786,2,60.893,2,61v1h2v-0.833c1.156-3.292,3.976-5.771,7.395-6.491l1.675-0.353C17.365,58.51,24.383,61,32,61
	s14.635-2.49,18.93-6.677l1.675,0.353c3.419,0.72,6.239,3.199,7.395,6.491V62h2v-1c0-0.107-0.017-0.214-0.051-0.316
	c-1.346-4.037-4.768-7.089-8.932-7.965l-9.635-2.029C42.001,50.399,41,49.165,41,47.754v-1.806
	C42.253,45.357,43.464,44.652,44.6,43.8z M20.392,29.921L15,23.63v-0.673c5.699-0.348,10.457-3.624,12.238-8.085
	c3.031,4.588,11.348,7.866,21.523,8.113l-5.197,6.929l-11.4-1.9c-0.109-0.019-0.22-0.019-0.329,0L20.392,29.921z M52,22
	c1.654,0,3,1.346,3,3s-1.346,3-3,3h-1v-6H52z M45,39.891v-8.558L49,26v3C49,32.997,47.553,36.846,45,39.891z M50,13
	c5.514,0,10,4.486,10,10v22.95c-5.046-0.503-9-4.774-9-9.95v-6h1c2.757,0,5-2.243,5-5s-2.243-5-5-5h-1.051
	c-0.131-2.491-0.737-4.852-1.74-7H50z M32,4c9.37,0,16.993,7.62,16.999,16.988C37.517,20.741,28,16.268,28,11h-2
	c0,5.232-4.849,9.531-10.998,9.958C15.025,11.603,22.64,4,32,4z M9,25c0-1.654,1.346-3,3-3h1v6h-1C10.346,28,9,26.654,9,25z M15,29
	v-2.297l4,4.667v8.521C16.447,36.846,15,32.997,15,29z M21,40.22l3.804,0.761l0.393-1.961L21,38.18V35.82l4.196-0.839l-0.393-1.961
	L21,33.78v-1.933l11-1.833l11,1.833v1.933l-3.804-0.761l-0.393,1.961L43,35.82v2.361l-4.196,0.839l0.393,1.961L43,40.22v2.272
	c-6.547,4.646-15.453,4.646-22,0V40.22z M42.97,52.647l5.538,1.166C44.527,57.084,38.517,59,32,59s-12.527-1.916-16.508-5.187
	l5.538-1.166c2.3-0.484,3.97-2.542,3.97-4.893v-0.982c2.26,0.792,4.628,1.201,7,1.201s4.74-0.409,7-1.201v0.982
	C39,50.105,40.669,52.163,42.97,52.647z" id="id_101" style="fill: rgb(255, 255, 255);"></path>
<circle cx="25" cy="26" r="2" id="id_102" style="fill: rgb(255, 255, 255);"></circle>
<circle cx="39" cy="26" r="2" id="id_103" style="fill: rgb(255, 255, 255);"></circle>
</svg>